<svg width="45" height="45" viewBox="0 0 45 45" fill="none" xmlns="http://www.w3.org/2000/svg">
<path d="M24.4541 8.72325L24.6291 8.88725L37.7011 21.7293L36.2991 23.1553L34.4991 21.3873L34.5001 34.9423C34.5001 35.9963 33.6841 36.8603 32.6491 36.9363L32.5001 36.9423H12.5001C11.4461 36.9423 10.5821 36.1263 10.5051 35.0913L10.5001 34.9423L10.4991 21.3883L8.70107 23.1553L7.29907 21.7293L20.3571 8.90025C21.4701 7.76425 23.2651 7.70125 24.4541 8.72325ZM21.8681 10.2273L21.7721 10.3143L12.4991 19.4233L12.5001 34.9423L17.4991 34.9413L17.5001 24.9423C17.5001 23.8883 18.3161 23.0243 19.3511 22.9473L19.5001 22.9423H25.5001C26.5541 22.9423 27.4181 23.7583 27.4951 24.7933L27.5001 24.9423L27.4991 34.9413L32.5001 34.9423L32.4991 19.4223L23.2001 10.2863C22.8361 9.92925 22.2681 9.90725 21.8681 10.2273ZM25.5001 24.9423H19.5001L19.4991 34.9413H25.4991L25.5001 24.9423Z" fill="#3C3C3C"/>
</svg>
