<svg width="45" height="50" viewBox="0 0 45 50" fill="none" xmlns="http://www.w3.org/2000/svg">
<path d="M22.6915 13.25C29.3185 13.25 34.6915 19.112 34.6915 24.974C34.6915 29.77 33.0635 34.529 29.8065 39.25H15.5765C12.3195 34.529 10.6915 29.77 10.6915 24.974C10.6915 18.499 16.0645 13.25 22.6915 13.25Z" stroke="#3C3C3C" stroke-width="2"/>
<path d="M22.6915 29.875C24.0035 29.875 25.0665 30.938 25.0665 32.25C25.0665 33.562 24.0035 34.625 22.6915 34.625C21.3795 34.625 20.3165 33.562 20.3165 32.25C20.3165 30.938 21.3795 29.875 22.6915 29.875Z" stroke="#3C3C3C" stroke-width="2"/>
<path d="M30.6915 25.25C30.6915 20.832 27.1095 17.25 22.6915 17.25C18.2735 17.25 14.6915 20.832 14.6915 25.25C25.3585 25.25 30.6915 25.25 30.6915 25.25Z" stroke="#3C3C3C" stroke-width="2"/>
<path d="M22.6915 25.25L25.6915 21.25" stroke="#3C3C3C" stroke-width="2" stroke-linejoin="round"/>
<path d="M22.6915 40.25V44.25" stroke="#3C3C3C" stroke-width="2"/>
</svg>
