<svg width="45" height="45" viewBox="0 0 45 45" fill="none" xmlns="http://www.w3.org/2000/svg">
<path d="M27.7812 11.002V9.00195C27.7812 7.89695 26.8863 7.00195 25.7812 7.00195H14.7812C13.6762 7.00195 12.7812 7.89695 12.7812 9.00195V36.002" stroke="#3C3C3C" stroke-width="2"/>
<path d="M33.7812 11.002H21.7812V15.002H33.7812V11.002Z" stroke="#3C3C3C" stroke-width="2" stroke-linejoin="round"/>
<path d="M18.7812 15.002H36.7812" stroke="#3C3C3C" stroke-width="2" stroke-linejoin="round"/>
<path d="M27.7812 18.002C27.2292 18.002 26.7812 18.45 26.7812 19.002C26.7812 19.554 27.2292 20.002 27.7812 20.002C28.3333 20.002 28.7812 19.554 28.7812 19.002C28.7812 18.45 28.3333 18.002 27.7812 18.002ZM22.7812 18.002C22.2293 18.002 21.7812 18.45 21.7812 19.002C21.7812 19.554 22.2293 20.002 22.7812 20.002C23.3333 20.002 23.7812 19.554 23.7812 19.002C23.7812 18.45 23.3333 18.002 22.7812 18.002ZM32.7812 18.002C32.2292 18.002 31.7812 18.45 31.7812 19.002C31.7812 19.554 32.2292 20.002 32.7812 20.002C33.3333 20.002 33.7812 19.554 33.7812 19.002C33.7812 18.45 33.3333 18.002 32.7812 18.002ZM27.7812 22.002C27.2292 22.002 26.7812 22.45 26.7812 23.002C26.7812 23.554 27.2292 24.002 27.7812 24.002C28.3333 24.002 28.7812 23.554 28.7812 23.002C28.7812 22.45 28.3333 22.002 27.7812 22.002ZM32.7812 22.002C32.2292 22.002 31.7812 22.45 31.7812 23.002C31.7812 23.554 32.2292 24.002 32.7812 24.002C33.3333 24.002 33.7812 23.554 33.7812 23.002C33.7812 22.45 33.3333 22.002 32.7812 22.002ZM22.7812 22.002C22.2293 22.002 21.7812 22.45 21.7812 23.002C21.7812 23.554 22.2293 24.002 22.7812 24.002C23.3333 24.002 23.7812 23.554 23.7812 23.002C23.7812 22.45 23.3333 22.002 22.7812 22.002ZM27.7812 26.002C27.2292 26.002 26.7812 26.45 26.7812 27.002C26.7812 27.554 27.2292 28.002 27.7812 28.002C28.3333 28.002 28.7812 27.554 28.7812 27.002C28.7812 26.45 28.3333 26.002 27.7812 26.002ZM32.7812 26.002C32.2292 26.002 31.7812 26.45 31.7812 27.002C31.7812 27.554 32.2292 28.002 32.7812 28.002C33.3333 28.002 33.7812 27.554 33.7812 27.002C33.7812 26.45 33.3333 26.002 32.7812 26.002ZM22.7812 26.002C22.2293 26.002 21.7812 26.45 21.7812 27.002C21.7812 27.554 22.2293 28.002 22.7812 28.002C23.3333 28.002 23.7812 27.554 23.7812 27.002C23.7812 26.45 23.3333 26.002 22.7812 26.002ZM27.7812 30.002C27.2292 30.002 26.7812 30.45 26.7812 31.002C26.7812 31.554 27.2292 32.002 27.7812 32.002C28.3333 32.002 28.7812 31.554 28.7812 31.002C28.7812 30.45 28.3333 30.002 27.7812 30.002ZM32.7812 30.002C32.2292 30.002 31.7812 30.45 31.7812 31.002C31.7812 31.554 32.2292 32.002 32.7812 32.002C33.3333 32.002 33.7812 31.554 33.7812 31.002C33.7812 30.45 33.3333 30.002 32.7812 30.002ZM22.7812 30.002C22.2293 30.002 21.7812 30.45 21.7812 31.002C21.7812 31.554 22.2293 32.002 22.7812 32.002C23.3333 32.002 23.7812 31.554 23.7812 31.002C23.7812 30.45 23.3333 30.002 22.7812 30.002ZM27.7812 34.002C27.2292 34.002 26.7812 34.45 26.7812 35.002C26.7812 35.554 27.2292 36.002 27.7812 36.002C28.3333 36.002 28.7812 35.554 28.7812 35.002C28.7812 34.45 28.3333 34.002 27.7812 34.002ZM32.7812 34.002C32.2292 34.002 31.7812 34.45 31.7812 35.002C31.7812 35.554 32.2292 36.002 32.7812 36.002C33.3333 36.002 33.7812 35.554 33.7812 35.002C33.7812 34.45 33.3333 34.002 32.7812 34.002ZM22.7812 34.002C22.2293 34.002 21.7812 34.45 21.7812 35.002C21.7812 35.554 22.2293 36.002 22.7812 36.002C23.3333 36.002 23.7812 35.554 23.7812 35.002C23.7812 34.45 23.3333 34.002 22.7812 34.002Z" fill="#3C3C3C"/>
<path d="M32.7812 18.002C32.2292 18.002 31.7812 18.45 31.7812 19.002C31.7812 19.554 32.2292 20.002 32.7812 20.002C33.3333 20.002 33.7812 19.554 33.7812 19.002C33.7812 18.45 33.3333 18.002 32.7812 18.002ZM27.7812 18.002C27.2293 18.002 26.7812 18.45 26.7812 19.002C26.7812 19.554 27.2293 20.002 27.7812 20.002C28.3333 20.002 28.7812 19.554 28.7812 19.002C28.7812 18.45 28.3333 18.002 27.7812 18.002ZM32.7812 22.002C32.2292 22.002 31.7812 22.45 31.7812 23.002C31.7812 23.554 32.2292 24.002 32.7812 24.002C33.3333 24.002 33.7812 23.554 33.7812 23.002C33.7812 22.45 33.3333 22.002 32.7812 22.002ZM27.7812 22.002C27.2293 22.002 26.7812 22.45 26.7812 23.002C26.7812 23.554 27.2293 24.002 27.7812 24.002C28.3333 24.002 28.7812 23.554 28.7812 23.002C28.7812 22.45 28.3333 22.002 27.7812 22.002ZM32.7812 26.002C32.2292 26.002 31.7812 26.45 31.7812 27.002C31.7812 27.554 32.2292 28.002 32.7812 28.002C33.3333 28.002 33.7812 27.554 33.7812 27.002C33.7812 26.45 33.3333 26.002 32.7812 26.002ZM27.7812 26.002C27.2293 26.002 26.7812 26.45 26.7812 27.002C26.7812 27.554 27.2293 28.002 27.7812 28.002C28.3333 28.002 28.7812 27.554 28.7812 27.002C28.7812 26.45 28.3333 26.002 27.7812 26.002ZM32.7812 30.002C32.2292 30.002 31.7812 30.45 31.7812 31.002C31.7812 31.554 32.2292 32.002 32.7812 32.002C33.3333 32.002 33.7812 31.554 33.7812 31.002C33.7812 30.45 33.3333 30.002 32.7812 30.002ZM27.7812 30.002C27.2293 30.002 26.7812 30.45 26.7812 31.002C26.7812 31.554 27.2293 32.002 27.7812 32.002C28.3333 32.002 28.7812 31.554 28.7812 31.002C28.7812 30.45 28.3333 30.002 27.7812 30.002ZM32.7812 34.002C32.2292 34.002 31.7812 34.45 31.7812 35.002C31.7812 35.554 32.2292 36.002 32.7812 36.002C33.3333 36.002 33.7812 35.554 33.7812 35.002C33.7812 34.45 33.3333 34.002 32.7812 34.002ZM27.7812 34.002C27.2293 34.002 26.7812 34.45 26.7812 35.002C26.7812 35.554 27.2293 36.002 27.7812 36.002C28.3333 36.002 28.7812 35.554 28.7812 35.002C28.7812 34.45 28.3333 34.002 27.7812 34.002Z" fill="#3C3C3C"/>
</svg>
