<svg width="45" height="45" viewBox="0 0 45 45" fill="none" xmlns="http://www.w3.org/2000/svg">
<path d="M30 14.75C30.552 14.75 31 15.198 31 15.75C31 16.302 30.552 16.75 30 16.75C29.448 16.75 29 16.302 29 15.75C29 15.198 29.448 14.75 30 14.75Z" fill="#3C3C3C"/>
<path d="M23 8.75C30.732 8.75 37 15.018 37 22.75C37 30.482 30.732 36.75 23 36.75C15.268 36.75 9 30.482 9 22.75C9 15.018 15.268 8.75 23 8.75Z" stroke="#3C3C3C" stroke-width="2"/>
<path d="M27.889 23.75C27.491 25.703 25.957 27.246 24 27.644V29.672C24.089 29.659 24.178 29.651 24.266 29.635C27.146 29.109 29.411 26.816 29.901 23.929C29.911 23.87 29.908 23.809 29.916 23.75H27.889Z" fill="#3C3C3C"/>
<path d="M29.904 21.581C29.408 18.635 27.094 16.329 24.147 15.843C24.099 15.835 24.048 15.839 24 15.832V17.861C25.961 18.259 27.492 19.788 27.89 21.75H29.918C29.91 21.694 29.913 21.636 29.904 21.581Z" fill="#3C3C3C"/>
<path d="M22.0001 27.639C20.0411 27.24 18.5081 25.712 18.1101 23.75H16.0861C16.0951 23.815 16.0921 23.882 16.1031 23.947C16.6081 26.875 18.9161 29.169 21.8461 29.655C21.8961 29.663 21.9491 29.661 22.0001 29.668V27.639Z" fill="#3C3C3C"/>
<path d="M18.113 21.7501C18.511 19.7951 20.036 18.2551 22 17.8561V15.8401C21.908 15.8531 21.811 15.8501 21.72 15.8671C18.802 16.4071 16.537 18.7391 16.082 21.6731C16.078 21.6981 16.08 21.7241 16.076 21.7501H18.113Z" fill="#3C3C3C"/>
<path d="M23 20.75C24.105 20.75 25 21.645 25 22.75C25 23.855 24.105 24.75 23 24.75C21.895 24.75 21 23.855 21 22.75C21 21.645 21.895 20.75 23 20.75Z" stroke="#3C3C3C" stroke-width="2"/>
</svg>
