<svg width="45" height="45" viewBox="0 0 45 45" fill="none" xmlns="http://www.w3.org/2000/svg">
<path d="M19.8619 31.5214H25.7929V33.4984H19.8619V31.5214ZM15.9079 33.4984V35.4754H29.7469V33.4984H27.7699V31.5214L28.8402 31.5175L29.055 31.5122C31.6857 31.4002 31.5421 30.3181 28.8837 30.3181L16.4786 30.3273C13.8479 30.4394 13.9903 31.5214 16.6487 31.5214H17.8849V33.4984H15.9079Z" fill="#3C3C3C"/>
<path d="M12.9425 11.7515H32.7125L32.8865 11.7567C34.443 11.8464 35.678 13.138 35.678 14.717V26.579L35.6727 26.753C35.5831 28.3095 34.2915 29.5445 32.7125 29.5445H12.9425L12.7685 29.5392C11.212 29.4496 9.977 28.1579 9.977 26.579V14.717L9.98227 14.543C10.0719 12.9864 11.3635 11.7515 12.9425 11.7515ZM27.77 31.5215H32.7125L32.9273 31.5175C35.5581 31.4055 37.655 29.2374 37.655 26.579V14.717L37.651 14.5021C37.539 11.8714 35.3709 9.77448 32.7125 9.77448H12.9425L12.7277 9.77843C10.0969 9.89046 8 12.0586 8 14.717V26.579L8.00395 26.7938C8.11598 29.4245 10.2841 31.5215 12.9425 31.5215H17.885H27.77Z" fill="#3C3C3C"/>
</svg>
