<svg xmlns="http://www.w3.org/2000/svg" viewBox="0 0 32 32" aria-hidden="true" role="presentation" focusable="false" style="display: block; height: 24px; width: 24px; fill: currentcolor;">
<path d="M26 4a2 2 0 0 1 2 1.85V9h1a3 3 0 0 1 3 2.82V30h-2v-2H2v2H0V12a3 3 0 0 1 2.82-3H4V6a2 2 0 0 1 1.7-1.98l.15-.01L6 4zm4 18H2v4h28zm-2.87-6H4.87L2.2 20h27.6zM29 11h-1v2.7l2 3V12a1 1 0 0 0-.88-1zM4 11H3a1 1 0 0 0-1 .88v4.82l2-3zm22-5H6v8h20zm-4 3a1 1 0 1 1 0 2 1 1 0 0 1 0-2zm-4 0a1 1 0 1 1 0 2 1 1 0 0 1 0-2zm-4 0a1 1 0 1 1 0 2 1 1 0 0 1 0-2zm-4 0a1 1 0 1 1 0 2 1 1 0 0 1 0-2z"></path>
</svg>