<svg width="45" height="45" viewBox="0 0 45 45" fill="none" xmlns="http://www.w3.org/2000/svg">
<path d="M23.026 7.54797V11.578L27.052 9.25297L28.052 10.986L23.026 13.887V20.815L29.026 17.351V11.548H31.026V16.196L34.517 14.182L35.517 15.914L32.026 17.929L36.052 20.253L35.052 21.986L30.026 19.083L24.026 22.547L30.027 26.012L35.052 23.11L36.052 24.842L32.026 27.166L35.517 29.182L34.517 30.914L31.026 28.899V33.548H29.026V27.744L23.026 24.279V31.208L28.052 34.11L27.052 35.842L23.026 33.517V37.548H21.026V33.517L17 35.842L16 34.11L21.026 31.208V24.279L15.026 27.743V33.548H13.026V28.898L9.536 30.914L8.536 29.182L12.025 27.166L8 24.842L9 23.11L14.025 26.011L20.025 22.547L14.026 19.083L9 21.986L8 20.253L12.026 17.929L8.536 15.914L9.536 14.182L13.026 16.196V11.548H15.026V17.351L21.026 20.815V13.887L16 10.986L17 9.25297L21.026 11.578V7.54797H23.026Z" fill="#3C3C3C"/>
</svg>
