<svg width="45" height="45" viewBox="0 0 45 45" fill="none" xmlns="http://www.w3.org/2000/svg">
<path d="M24 15.25C27.314 15.25 30 17.936 30 21.25V36.25C30 36.802 29.552 37.25 29 37.25H19C18.448 37.25 18 36.802 18 36.25V21.25L18.004 21.025C18.122 17.816 20.762 15.25 24 15.25Z" stroke="#3C3C3C" stroke-width="2"/>
<path d="M15 29.25H19H15Z" stroke="#3C3C3C" stroke-width="2"/>
<path d="M24 11.25V15.25V11.25Z" stroke="#3C3C3C" stroke-width="2"/>
<path d="M31 11.25H24C18.477 11.25 14 15.727 14 21.25V34.25" stroke="#3C3C3C" stroke-width="2"/>
<path d="M24 11.25L29 7.25L24 11.25Z" stroke="#3C3C3C" stroke-width="2"/>
<path d="M24 13.25C25.105 13.25 26 12.355 26 11.25C26 10.145 25.105 9.25 24 9.25C22.895 9.25 22 10.145 22 11.25C22 12.355 22.895 13.25 24 13.25Z" fill="white"/>
<path d="M24 13.25C25.105 13.25 26 12.355 26 11.25C26 10.145 25.105 9.25 24 9.25C22.895 9.25 22 10.145 22 11.25C22 12.355 22.895 13.25 24 13.25Z" stroke="#3C3C3C" stroke-width="2"/>
</svg>
