<svg width="45" height="45" viewBox="0 0 45 45" fill="none" xmlns="http://www.w3.org/2000/svg">
<g clip-path="url(#clip0_2_1380)">
<path d="M55.8141 59.875C55.8141 57.151 55.8141 54.415 55.8141 51.604C55.8141 48.793 55.8141 45.905 55.8141 42.875C55.8141 39.78 56.2261 35.917 56.4321 32.509C56.6381 29.101 56.6371 26.149 55.8141 24.875C55.7481 24.774 55.0751 24.774 54.3791 24.799C53.6841 24.824 52.9661 24.875 52.8141 24.875C48.7041 24.875 48.0151 23.171 45.8141 21.875C43.4831 20.502 42.6641 19.829 39.8141 19.875C33.9331 19.97 31.5791 24.976 26.8141 24.875C21.9711 24.773 18.1401 18.732 13.8141 18.875C9.89213 19.005 6.18913 24.852 1.81413 24.875C-3.36788 24.903 -5.94787 18.856 -10.1859 20.875C-8.45887 34.259 -12.6889 46.588 -10.1859 52.875C-9.66587 54.181 -6.97687 55.681 -5.18587 56.875C-2.65987 58.56 -0.798875 59.883 1.81413 59.875C6.42513 59.861 9.37113 53.817 14.8141 53.875C18.6921 53.916 23.3351 59.983 27.8141 59.875C33.1761 59.745 34.9671 53.69 40.8141 53.875C46.4791 54.055 48.5351 61.867 55.8141 59.875Z" stroke="#3C3C3C" stroke-width="2"/>
<path d="M10.8141 9.875H34.8141C35.3661 9.875 35.8141 10.323 35.8141 10.875V34.875C35.8141 35.427 35.3661 35.875 34.8141 35.875H10.8141C10.2621 35.875 9.81409 35.427 9.81409 34.875V10.875C9.81409 10.323 10.2621 9.875 10.8141 9.875Z" stroke="#3C3C3C" stroke-width="2"/>
<path d="M22.8141 14.875C27.2321 14.875 30.8141 18.457 30.8141 22.875C30.8141 27.293 27.2321 30.875 22.8141 30.875C18.3961 30.875 14.8141 27.293 14.8141 22.875C14.8141 18.457 18.3961 14.875 22.8141 14.875Z" stroke="#3C3C3C" stroke-width="2"/>
<path d="M13.8141 12.875C14.3661 12.875 14.8141 13.323 14.8141 13.875C14.8141 14.427 14.3661 14.875 13.8141 14.875C13.2621 14.875 12.8141 14.427 12.8141 13.875C12.8141 13.323 13.2621 12.875 13.8141 12.875Z" fill="#3C3C3C"/>
</g>
<defs>
<clipPath id="clip0_2_1380">
<rect width="45" height="45" fill="white"/>
</clipPath>
</defs>
</svg>
