<svg width="45" height="45" viewBox="0 0 45 45" fill="none" xmlns="http://www.w3.org/2000/svg">
<path d="M20.3877 30.1472C20.3877 29.034 21.2906 28.1311 22.4038 28.1311C23.517 28.1311 24.4199 29.034 24.4199 30.1472C24.4199 31.2604 23.517 32.1618 22.4038 32.1618C21.2906 32.1618 20.3877 31.2604 20.3877 30.1472ZM26.4345 30.1472C26.4345 27.9208 24.6302 26.1164 22.4038 26.1164C20.1774 26.1164 18.373 27.9208 18.373 30.1472C18.373 32.3736 20.1774 34.1779 22.4038 34.1779C24.6302 34.1779 26.4345 32.3736 26.4345 30.1472Z" fill="#3C3C3C"/>
<path d="M30.5088 26.073C29.017 23.1091 25.948 21.0776 22.4038 21.0776C18.8595 21.0776 15.7906 23.1105 14.2988 26.073L15.8242 27.5983C16.8463 24.9626 19.4063 23.0923 22.4038 23.0923C25.4013 23.0923 27.9613 24.9626 28.9834 27.5983L30.5088 26.073Z" fill="#3C3C3C"/>
<path d="M34.1904 22.3913C31.6668 18.5639 27.3304 16.0388 22.4038 16.0388C17.4772 16.0388 13.1408 18.5653 10.6172 22.3913L12.0781 23.8508C14.2021 20.3752 18.0324 18.0549 22.4038 18.0549C26.7766 18.0549 30.6069 20.3752 32.7309 23.8522L34.1904 22.3913Z" fill="#3C3C3C"/>
<path d="M37.8075 18.7742C34.3208 14.0592 28.7184 11.0001 22.4038 11.0001C16.0892 11.0001 10.4868 14.0592 7 18.7742L8.44406 20.2154C11.5495 15.858 16.6444 13.0161 22.4038 13.0161C28.1632 13.0161 33.2595 15.858 36.3649 20.2168L37.8075 18.7742Z" fill="#3C3C3C"/>
</svg>
